<?xml version="1.0" standalone="no"?>
<svg xmlns="http://www.w3.org/2000/svg" viewBox="0 0 1024 1024">
  <path d="M880 112H144c-17.7 0-32 14.3-32 32v736c0 17.7 14.3 32 32 32h736c17.7 0 32-14.3 32-32V144c0-17.7-14.3-32-32-32zM512 800c-88.4 0-160-71.6-160-160s71.6-160 160-160 160 71.6 160 160-71.6 160-160 160z m0-256c-53 0-96 43-96 96s43 96 96 96 96-43 96-96-43-96-96-96z" fill="#13c2c2"/>
  <path d="M512 320c-35.3 0-64-28.7-64-64s28.7-64 64-64 64 28.7 64 64-28.7 64-64 64zM840 320H688c-4.4 0-8-3.6-8-8v-48c0-4.4 3.6-8 8-8h152c4.4 0 8 3.6 8 8v48c0 4.4-3.6 8-8 8zM336 320H184c-4.4 0-8-3.6-8-8v-48c0-4.4 3.6-8 8-8h152c4.4 0 8 3.6 8 8v48c0 4.4-3.6 8-8 8z" fill="#13c2c2"/>
</svg> 